<?xml version="1.0" standalone="no"?><svg xmlns="http://www.w3.org/2000/svg" viewBox="0 0 1440 320"><path fill="#4040a7" fill-opacity="1" d="M0,96L24,133.3C48,171,96,245,144,272C192,299,240,277,288,245.3C336,213,384,171,432,181.3C480,192,528,256,576,282.7C624,309,672,299,720,250.7C768,203,816,117,864,122.7C912,128,960,224,1008,224C1056,224,1104,128,1152,128C1200,128,1248,224,1296,245.3C1344,267,1392,213,1416,186.7L1440,160L1440,0L1416,0C1392,0,1344,0,1296,0C1248,0,1200,0,1152,0C1104,0,1056,0,1008,0C960,0,912,0,864,0C816,0,768,0,720,0C672,0,624,0,576,0C528,0,480,0,432,0C384,0,336,0,288,0C240,0,192,0,144,0C96,0,48,0,24,0L0,0Z"></path></svg>